<?xml version="1.0" encoding="utf-8"?><!-- Uploaded to: SVG Repo, www.svgrepo.com, Generator: SVG Repo Mixer Tools -->
<svg width="800px" height="800px" viewBox="0 0 960 960" fill="none" xmlns="http://www.w3.org/2000/svg">
<path d="M360.744 250.853C390.086 169.044 470.685 194.989 538.759 191.12C581.779 187.039 610.576 212.471 613.744 256.766C647.274 218.009 638.687 154.79 604.708 119.199C573.894 82.7126 524.26 113.17 524.619 67.2706C526.064 51.9856 540.793 42.9786 558.281 44.8936C679.133 60.5616 715.367 197.883 657.148 282.044C646.248 296.649 632.452 307.59 614.582 312.958C612.296 313.645 610.079 316.84 609.142 319.361C604.064 335.482 595.863 351.446 593.264 368.059C605.461 487.181 680.273 706.765 622.091 809.316C593.259 844.942 569.832 887.368 529.653 911.539C512.092 922.311 493.067 921.749 476.341 909.233C439.802 881.532 402.038 854.086 373.182 817.934C350.639 789.795 346.988 758.165 354.125 723.676C368.475 654.327 376.43 584.02 384.579 513.725C388.617 478.89 394.943 444.291 401.168 409.754C403.374 397.513 402.755 390.052 390.176 382.477C341.108 353.868 365.847 302.215 344.045 296.291C217.754 245.227 279.028 60.1446 400.889 40.5036C429.325 36.0926 441.923 74.4166 416.989 88.4136C374.818 104.39 338.254 128.067 327.84 174.895C320.369 204.739 334.162 238.05 360.744 250.853ZM495.692 236.414C495.693 237.289 495.695 238.163 495.696 239.038C468.283 242.509 423.417 226.661 411.813 260.58C401.228 294.843 393.181 345.409 441.474 350.253C469.009 355.863 496.875 356.574 524.847 355.38C552.791 355.265 557.201 322.769 562.083 301.531C564.936 281.717 568.627 261.501 558.888 242.053C557.031 230.842 507.659 238.573 495.692 236.414ZM407.604 701.648C404.547 719.126 401.192 735.448 401.177 752.823C404.646 799.188 467.457 828.132 497.232 860.253C514.916 881.627 564.621 796.113 578.562 782.741C521.168 756.002 467.378 723.919 407.604 701.648ZM591.54 739.751C589.512 725.433 596.873 673.497 586.117 669.241C531.316 643.147 481.417 610.118 424.566 587.86C421.521 610.817 418.682 632.218 416.197 650.958C475.497 680.988 532.965 710.089 591.54 739.751ZM429.617 537.401C484.714 556.279 533.16 586.43 584.17 614.783C579.964 588.138 575.519 563.57 572.434 538.833C571.023 527.522 567.403 520.066 555.314 518.424C516.006 500.743 479.052 478.8 440.03 460.008C436.459 486.542 433.07 511.731 429.617 537.401ZM449.315 408.639C486.237 428.425 521.74 447.45 559.022 467.429C554.632 443.898 550.713 422.898 546.735 401.577C514.105 407.649 482.158 405.676 449.963 402.53C449.654 405.45 449.407 407.771 449.315 408.639Z" fill="#000000"/>
<path d="M495.69 236.415C507.868 238.548 556.945 230.88 558.886 242.051C568.626 261.501 564.934 281.717 562.08 301.531C557.213 322.772 552.779 355.265 524.846 355.38C484.538 353.9 398.653 365.574 403.902 304.888C408.128 227.688 431.257 239.334 495.694 239.038C495.693 238.165 495.692 237.29 495.69 236.415Z" fill="white"/>
<path d="M407.601 701.648C467.375 723.919 521.165 756.002 578.559 782.741C564.756 796.018 514.825 881.631 497.235 860.253C467.426 828.098 404.693 799.251 401.172 752.827C401.191 735.438 404.55 719.146 407.601 701.648Z" fill="white"/>
<path d="M591.539 739.75C532.964 710.088 475.496 680.987 416.195 650.957C418.681 632.217 421.519 610.816 424.564 587.859C481.407 610.113 531.321 643.149 586.113 669.24C596.958 673.765 589.454 725.179 591.539 739.75Z" fill="white"/>
<path d="M429.617 537.401C433.071 511.731 436.46 486.542 440.03 460.008C479.044 478.796 516.012 500.747 555.313 518.426C567.403 520.066 571.023 527.522 572.434 538.834C575.52 563.571 579.964 588.139 584.17 614.784C533.16 586.43 484.714 556.279 429.617 537.401Z" fill="white"/>
<path d="M449.312 408.64C449.405 407.772 449.651 405.451 449.961 402.531C482.156 405.677 514.103 407.65 546.733 401.578C550.711 422.899 554.629 443.899 559.02 467.43C521.737 447.451 486.235 428.426 449.312 408.64Z" fill="white"/>
</svg>